<svg width="40" height="42" viewBox="0 0 40 42" fill="none" xmlns="http://www.w3.org/2000/svg">
<path d="M2.05005 4.88794H32.9323C34.6125 4.88794 35.4526 4.88794 36.0943 5.21492C36.6588 5.50254 37.1177 5.96148 37.4053 6.52597C37.7323 7.1677 37.7323 8.00778 37.7323 9.68794V14.7519C37.7323 16.432 37.7323 17.2721 37.4053 17.9139C37.1177 18.4783 36.6588 18.9373 36.0943 19.2249C35.4526 19.5519 34.6125 19.5519 32.9323 19.5519H6.85005C5.16989 19.5519 4.32981 19.5519 3.68808 19.8789C3.12359 20.1665 2.66465 20.6254 2.37703 21.1899C2.05005 21.8316 2.05005 22.6717 2.05005 24.3519V30.3934C2.05005 32.0736 2.05005 32.9137 2.37703 33.5554C2.66465 34.1199 3.12359 34.5788 3.68808 34.8664C4.32981 35.1934 5.16989 35.1934 6.85005 35.1934H23.0684" stroke="#496892" stroke-width="4"/>
<circle cx="6.37678" cy="5.37678" r="3.87678" fill="#496892" stroke="#496892" stroke-width="3"/>
<circle cx="20.2113" cy="19.3575" r="5.37678" fill="#496892"/>
<circle cx="32.3555" cy="35.1934" r="3.87678" fill="#496892" stroke="#496892" stroke-width="3"/>
<path d="M18.2673 30.8918L25.5796 35.1936L18.2673 39.4955L18.2673 30.8918Z" fill="#496892" stroke="#496892"/>
</svg>
