<svg width="40" height="40" viewBox="0 0 40 40" fill="none" xmlns="http://www.w3.org/2000/svg">
<path d="M39.4201 36.58L36.5801 39.42C36.2054 39.7925 35.6985 40.0016 35.1701 40.0016C34.6417 40.0016 34.1348 39.7925 33.7601 39.42L10.0001 15.7C9.34979 15.8887 8.67717 15.9895 8.00012 16C6.72673 15.9991 5.47195 15.6942 4.3401 15.1107C3.20826 14.5272 2.23205 13.682 1.49264 12.6453C0.75324 11.6085 0.271999 10.4103 0.0889335 9.1501C-0.0941319 7.88993 0.0262672 6.60427 0.440121 5.4L5.52012 10.48L6.58012 9.42L9.42012 6.58L10.4801 5.52L5.40012 0.44C6.60439 0.0261465 7.89005 -0.0942526 9.15022 0.0888128C10.4104 0.271878 11.6086 0.753119 12.6454 1.49252C13.6821 2.23193 14.5274 3.20814 15.1108 4.33998C15.6943 5.47182 15.9992 6.72661 16.0001 8C15.9897 8.67705 15.8888 9.34967 15.7001 10L39.4201 33.76C39.7926 34.1347 40.0017 34.6416 40.0017 35.17C40.0017 35.6984 39.7926 36.2053 39.4201 36.58ZM0.580121 33.76C0.207619 34.1347 -0.00146484 34.6416 -0.00146484 35.17C-0.00146484 35.6984 0.207619 36.2053 0.580121 36.58L3.42012 39.42C3.79485 39.7925 4.30175 40.0016 4.83012 40.0016C5.35849 40.0016 5.8654 39.7925 6.24012 39.42L17.1801 28.5L11.5201 22.84M36.0001 0L28.0001 4V8L23.6601 12.34L27.6601 16.34L32.0001 12H36.0001L40.0001 4L36.0001 0Z" fill="#496892"/>
</svg>
