<?xml version="1.0" encoding="utf-8"?>
<!-- Generator: Adobe Illustrator 27.6.1, SVG Export Plug-In . SVG Version: 6.00 Build 0)  -->
<svg version="1.1" id="Layer_1" xmlns="http://www.w3.org/2000/svg" xmlns:xlink="http://www.w3.org/1999/xlink" x="0px" y="0px"
	 viewBox="0 0 500 500" style="enable-background:new 0 0 500 500;" xml:space="preserve">
<style type="text/css">
	.st0{fill:#FF0000;}
	.st1{fill:#FFFFFF;}
</style>
<g>
	<path class="st0" d="M305,101.5l195,281.6V100c0-43.8,0-68.2-15.9-84.1C468.2,0,443.8,0,400,0H100C56.2,0,31.8,0,15.9,15.9
		C0,31.8,0,56.2,0,100v282.7l194.8-281.3C221.4,63,278.3,63,305,101.5z"/>
	<path class="st0" d="M44.2,478.4l-11.1,16.2C48.5,500,69.5,500,100,500h300c30.3,0,51.3,0,66.7-5.3l-11.1-16.3
		C356.5,333.9,143.2,333.9,44.2,478.4z"/>
	<path class="st1" d="M500,400v-16.9L305,101.5c-26.7-38.5-83.6-38.5-110.3,0L0,382.7V400c0,43.8,0,68.2,15.9,84.1
		c4.8,4.8,10.5,8.2,17.2,10.5l11.1-16.2c99-144.6,312.3-144.6,411.3,0l11.1,16.3c6.8-2.3,12.5-5.7,17.4-10.6
		C500,468.2,500,443.8,500,400z"/>
</g>
</svg>
