<svg width="22" height="22" viewBox="0 0 22 22" fill="none" xmlns="http://www.w3.org/2000/svg">
<path d="M11 12.3259C11.7323 12.3259 12.3259 11.7323 12.3259 11C12.3259 10.2677 11.7323 9.67407 11 9.67407C10.2677 9.67407 9.67407 10.2677 9.67407 11C9.67407 11.7323 10.2677 12.3259 11 12.3259Z" fill="#496892"/>
<path d="M20.2815 12.3259C21.0138 12.3259 21.6074 11.7323 21.6074 11C21.6074 10.2677 21.0138 9.67407 20.2815 9.67407C19.5492 9.67407 18.9556 10.2677 18.9556 11C18.9556 11.7323 19.5492 12.3259 20.2815 12.3259Z" fill="#496892"/>
<path d="M1.71851 12.3259C2.4508 12.3259 3.04443 11.7323 3.04443 11C3.04443 10.2677 2.4508 9.67407 1.71851 9.67407C0.986216 9.67407 0.392578 10.2677 0.392578 11C0.392578 11.7323 0.986216 12.3259 1.71851 12.3259Z" fill="#496892"/>
<path d="M11 12.3259C11.7323 12.3259 12.3259 11.7323 12.3259 11C12.3259 10.2677 11.7323 9.67407 11 9.67407C10.2677 9.67407 9.67407 10.2677 9.67407 11C9.67407 11.7323 10.2677 12.3259 11 12.3259Z" stroke="#496892" stroke-width="0.5" stroke-linecap="round" stroke-linejoin="round"/>
<path d="M20.2815 12.3259C21.0138 12.3259 21.6074 11.7323 21.6074 11C21.6074 10.2677 21.0138 9.67407 20.2815 9.67407C19.5492 9.67407 18.9556 10.2677 18.9556 11C18.9556 11.7323 19.5492 12.3259 20.2815 12.3259Z" stroke="#496892" stroke-width="0.5" stroke-linecap="round" stroke-linejoin="round"/>
<path d="M1.71851 12.3259C2.4508 12.3259 3.04443 11.7323 3.04443 11C3.04443 10.2677 2.4508 9.67407 1.71851 9.67407C0.986216 9.67407 0.392578 10.2677 0.392578 11C0.392578 11.7323 0.986216 12.3259 1.71851 12.3259Z" stroke="#496892" stroke-width="0.5" stroke-linecap="round" stroke-linejoin="round"/>
</svg>
