<svg width="38" height="40" viewBox="0 0 38 40" fill="none" xmlns="http://www.w3.org/2000/svg">
<path d="M5.93989 8.03008V33.0581C5.93963 33.7728 6.08021 34.4806 6.3536 35.1409C6.627 35.8013 7.02784 36.4013 7.53323 36.9067C8.03862 37.4121 8.63864 37.813 9.29902 38.0864C9.95939 38.3598 10.6672 38.5003 11.3819 38.5001H26.6179C28.0607 38.5001 29.4444 37.9269 30.4646 36.9067C31.4847 35.8865 32.0579 34.5029 32.0579 33.0601V8.02808M1.58789 8.03008H36.4119" stroke="#FF0000" stroke-width="3" stroke-linecap="round" stroke-linejoin="round"/>
<path d="M12.47 8.03001V4.76401C12.4694 4.33505 12.5536 3.91022 12.7175 3.51384C12.8815 3.11747 13.1221 2.75735 13.4255 2.45413C13.7289 2.1509 14.0892 1.91054 14.4857 1.74682C14.8821 1.58309 15.307 1.49922 15.736 1.50001H22.264C22.6929 1.49922 23.1178 1.58309 23.5143 1.74682C23.9108 1.91054 24.271 2.1509 24.5744 2.45413C24.8778 2.75735 25.1184 3.11747 25.2824 3.51384C25.4464 3.91022 25.5305 4.33505 25.53 4.76401V8.03001M14.648 29.984V19.106M23.354 29.984V19.106" stroke="#FF0000" stroke-width="3" stroke-linecap="round" stroke-linejoin="round"/>
</svg>
